<mxfile host="app.diagrams.net" modified="2022-06-18T01:00:07.397Z" agent="5.0 (Windows NT 10.0; Win64; x64) AppleWebKit/537.36 (KHTML, like Gecko) Chrome/102.0.5005.124 Safari/537.36 Edg/102.0.1245.41" etag="3x5k5iRJgZrBqjvxZQt3" version="19.0.0" type="github">
  <diagram id="136tG935vSeWfPEkJq7c" name="第 1 页">
    <mxGraphModel dx="677" dy="374" grid="1" gridSize="10" guides="1" tooltips="1" connect="1" arrows="1" fold="1" page="1" pageScale="1" pageWidth="827" pageHeight="1169" math="0" shadow="0">
      <root>
        <mxCell id="0" />
        <mxCell id="1" parent="0" />
        <mxCell id="tG-E1sNEqsZ-xOgTlkAc-1" value="" style="group" vertex="1" connectable="0" parent="1">
          <mxGeometry x="120" y="80" width="460" height="300" as="geometry" />
        </mxCell>
        <mxCell id="MxsKF74igadq6dLB-A8h-1" value="异构语言-异构协议&#xa;支持模块" style="shape=umlLifeline;perimeter=lifelinePerimeter;container=1;collapsible=0;recursiveResize=0;rounded=0;shadow=0;strokeWidth=1;" parent="tG-E1sNEqsZ-xOgTlkAc-1" vertex="1">
          <mxGeometry width="100" height="300" as="geometry" />
        </mxCell>
        <mxCell id="MxsKF74igadq6dLB-A8h-2" value="" style="points=[];perimeter=orthogonalPerimeter;rounded=0;shadow=0;strokeWidth=1;" parent="MxsKF74igadq6dLB-A8h-1" vertex="1">
          <mxGeometry x="45" y="70" width="10" height="210" as="geometry" />
        </mxCell>
        <mxCell id="MxsKF74igadq6dLB-A8h-3" value="c++-微服务适配器" style="shape=umlLifeline;perimeter=lifelinePerimeter;container=1;collapsible=0;recursiveResize=0;rounded=0;shadow=0;strokeWidth=1;" parent="tG-E1sNEqsZ-xOgTlkAc-1" vertex="1">
          <mxGeometry x="180" width="100" height="300" as="geometry" />
        </mxCell>
        <mxCell id="MxsKF74igadq6dLB-A8h-4" value="" style="points=[];perimeter=orthogonalPerimeter;rounded=0;shadow=0;strokeWidth=1;" parent="MxsKF74igadq6dLB-A8h-3" vertex="1">
          <mxGeometry x="45" y="80" width="10" height="70" as="geometry" />
        </mxCell>
        <mxCell id="MxsKF74igadq6dLB-A8h-5" value="适配请求" style="verticalAlign=bottom;endArrow=block;entryX=0;entryY=0;shadow=0;strokeWidth=1;" parent="tG-E1sNEqsZ-xOgTlkAc-1" source="MxsKF74igadq6dLB-A8h-2" target="MxsKF74igadq6dLB-A8h-4" edge="1">
          <mxGeometry relative="1" as="geometry">
            <mxPoint x="155" y="80" as="sourcePoint" />
          </mxGeometry>
        </mxCell>
        <mxCell id="MxsKF74igadq6dLB-A8h-6" value="grpc-微服务适配器" style="shape=umlLifeline;perimeter=lifelinePerimeter;container=1;collapsible=0;recursiveResize=0;rounded=0;shadow=0;strokeWidth=1;" parent="tG-E1sNEqsZ-xOgTlkAc-1" vertex="1">
          <mxGeometry x="360" width="100" height="300" as="geometry" />
        </mxCell>
        <mxCell id="MxsKF74igadq6dLB-A8h-7" value="" style="points=[];perimeter=orthogonalPerimeter;rounded=0;shadow=0;strokeWidth=1;" parent="MxsKF74igadq6dLB-A8h-6" vertex="1">
          <mxGeometry x="45" y="190" width="10" height="60" as="geometry" />
        </mxCell>
        <mxCell id="MxsKF74igadq6dLB-A8h-8" value="适配后代码" style="html=1;verticalAlign=bottom;endArrow=open;dashed=1;endSize=8;rounded=0;exitX=0.12;exitY=0.983;exitDx=0;exitDy=0;exitPerimeter=0;entryX=0.92;entryY=0.371;entryDx=0;entryDy=0;entryPerimeter=0;" parent="tG-E1sNEqsZ-xOgTlkAc-1" edge="1" target="MxsKF74igadq6dLB-A8h-2" source="MxsKF74igadq6dLB-A8h-4">
          <mxGeometry relative="1" as="geometry">
            <mxPoint x="230" y="140" as="sourcePoint" />
            <mxPoint x="140" y="170" as="targetPoint" />
          </mxGeometry>
        </mxCell>
        <mxCell id="MxsKF74igadq6dLB-A8h-9" value="适配请求" style="verticalAlign=bottom;endArrow=block;shadow=0;strokeWidth=1;entryX=-0.08;entryY=-0.006;entryDx=0;entryDy=0;entryPerimeter=0;exitX=1.08;exitY=0.575;exitDx=0;exitDy=0;exitPerimeter=0;" parent="tG-E1sNEqsZ-xOgTlkAc-1" target="MxsKF74igadq6dLB-A8h-7" edge="1" source="MxsKF74igadq6dLB-A8h-2">
          <mxGeometry relative="1" as="geometry">
            <mxPoint x="50" y="200" as="sourcePoint" />
            <mxPoint x="210" y="200" as="targetPoint" />
          </mxGeometry>
        </mxCell>
        <mxCell id="MxsKF74igadq6dLB-A8h-10" value="适配后代码" style="html=1;verticalAlign=bottom;endArrow=open;dashed=1;endSize=8;rounded=0;" parent="tG-E1sNEqsZ-xOgTlkAc-1" source="MxsKF74igadq6dLB-A8h-7" target="MxsKF74igadq6dLB-A8h-2" edge="1">
          <mxGeometry relative="1" as="geometry">
            <mxPoint x="270" y="250" as="sourcePoint" />
            <mxPoint x="94.79999999999995" y="257.28" as="targetPoint" />
            <Array as="points">
              <mxPoint x="90" y="250" />
            </Array>
          </mxGeometry>
        </mxCell>
      </root>
    </mxGraphModel>
  </diagram>
</mxfile>
